<?xml version="1.0" encoding="UTF-8" standalone="no"?>
<!-- Created with Inkscape (http://www.inkscape.org/) -->

<svg
   width="160mm"
   height="180mm"
   viewBox="0 0 160 180"
   version="1.1"
   id="svg5"
   inkscape:version="1.2.2 (b0a8486541, 2022-12-01)"
   sodipodi:docname="silkscreen_bot.svg"
   xml:space="preserve"
   xmlns:inkscape="http://www.inkscape.org/namespaces/inkscape"
   xmlns:sodipodi="http://sodipodi.sourceforge.net/DTD/sodipodi-0.dtd"
   xmlns="http://www.w3.org/2000/svg"
   xmlns:svg="http://www.w3.org/2000/svg"><sodipodi:namedview
     id="namedview7"
     pagecolor="#ffffff"
     bordercolor="#666666"
     borderopacity="1.0"
     inkscape:showpageshadow="2"
     inkscape:pageopacity="0.0"
     inkscape:pagecheckerboard="0"
     inkscape:deskcolor="#d1d1d1"
     inkscape:document-units="mm"
     showgrid="false"
     inkscape:zoom="1.0183341"
     inkscape:cx="213.58413"
     inkscape:cy="479.21404"
     inkscape:window-width="1440"
     inkscape:window-height="991"
     inkscape:window-x="26"
     inkscape:window-y="23"
     inkscape:window-maximized="0"
     inkscape:current-layer="svg5" /><defs
     id="defs2" /><g
     inkscape:groupmode="layer"
     id="layer2"
     inkscape:label="Silkscreen"
     style="display:inline"><path
       id="path403"
       style="display:inline;fill:#000000;stroke-width:0.264583"
       d="M 52.020081 1.8965251 C 51.38086 1.9069451 50.274267 2.0728937 48.04668 2.4055379 C 42.58006 3.2218719 43.003093 2.9847896 43.109513 5.1743612 L 43.198914 7.0197266 L 40.331388 7.0192098 C 38.75409 7.0187498 36.702074 7.1870874 35.77146 7.3933472 L 34.079574 7.7685181 L 32.993335 6.5680745 C 32.395991 5.9079599 31.686955 5.0461653 31.417721 4.652946 C 30.863311 3.8432721 30.421479 3.8573491 26.880013 4.7955729 C 24.717325 5.3685316 23.245023 5.4287176 22.517489 4.9743734 C 21.669929 4.4450642 21.383966 5.0272059 21.425566 7.1974935 C 21.476296 9.8463063 21.658527 10.67567 22.686471 12.938228 C 23.174045 14.011422 23.572721 14.985237 23.572721 15.102437 C 23.572721 15.219636 23.923482 16.073148 24.352002 16.998962 C 24.780522 17.924767 25.249082 19.414973 25.393282 20.310388 C 25.537492 21.205803 25.776593 22.165208 25.925033 22.442558 C 26.073467 22.719917 26.366738 23.770942 26.576672 24.777816 C 27.049782 27.046843 27.822539 28.391718 29.084013 29.142924 C 30.381177 29.915398 30.716471 30.373985 30.716471 31.374829 C 30.716471 31.836709 30.960044 32.524195 31.257524 32.902384 C 31.750768 33.529439 31.764711 33.654909 31.415137 34.327104 C 31.204297 34.732523 30.773429 35.360161 30.458089 35.721851 C 30.043965 36.196805 29.933561 36.564268 30.060181 37.044767 C 30.156611 37.410672 30.329987 39.145598 30.445687 40.900346 C 30.620317 43.548803 30.772859 44.321645 31.343823 45.448389 C 31.966023 46.676242 32.007127 46.936965 31.771187 48.181038 C 31.286653 50.735971 31.398287 51.209683 33.382975 55.002844 C 34.685529 57.492287 35.45597 59.352054 35.91202 61.110482 C 36.534914 63.512259 37.624553 65.887968 38.103617 65.887968 C 38.526537 65.887968 40.233538 68.675937 40.769088 70.241191 C 41.065452 71.107365 41.537383 72.060099 41.817603 72.358374 C 42.320277 72.893153 42.320341 72.909672 41.81967 73.561401 C 41.24373 74.311066 41.16447 75.298248 41.59281 76.388102 C 41.75382 76.797747 41.916328 78.561521 41.954028 80.30776 C 42.008138 82.815841 42.135195 83.737789 42.559159 84.696122 C 43.069489 85.849681 45.101033 89.087272 45.881437 89.990889 C 46.082267 90.223423 46.316636 90.936704 46.402336 91.575806 C 46.55082 92.682867 46.867638 93.111043 48.057532 93.814945 C 48.766416 94.234305 48.40017 95.186492 46.847786 96.96049 C 44.656964 99.464063 44.701178 99.341954 44.986918 102.10385 C 45.152198 103.70136 45.418621 104.83075 45.761031 105.38788 C 46.048081 105.85493 46.365621 106.71318 46.466931 107.29526 C 46.568241 107.87734 46.809996 108.60768 47.004366 108.91842 C 47.461626 109.64942 47.271587 109.8088 45.941899 109.8088 C 44.906515 109.8088 44.808087 109.8809 43.991113 111.22887 C 42.761515 113.25773 42.676003 114.17153 43.554447 115.90507 C 44.109557 117.00052 44.32387 117.9107 44.48359 119.85263 C 44.63703 121.71807 44.903949 122.89674 45.506783 124.37019 C 46.240327 126.1631 46.301401 126.52258 46.115531 127.94206 L 45.908826 129.52026 L 44.332178 127.92294 C 43.464904 127.04429 42.519792 125.88338 42.232048 125.34325 C 41.944288 124.80312 41.507821 124.36088 41.262081 124.36088 C 41.016341 124.36088 40.168779 125.07563 39.378475 125.9489 C 37.959121 127.51734 37.930524 127.53298 37.04115 127.24185 C 35.842976 126.84965 35.214905 126.08225 35.214905 125.01046 C 35.214905 123.67851 34.798644 122.83876 33.35507 121.25927 C 31.909286 119.67734 31.873379 119.51557 32.344279 116.6642 C 32.582309 115.22268 32.577057 114.68478 32.320508 114.20543 C 32.035198 113.67232 32.099764 113.37921 32.809884 111.97249 C 33.715458 110.17854 33.830994 108.95613 33.23053 107.51902 C 33.01225 106.9966 32.833655 106.25458 32.833655 105.87002 C 32.833655 105.48545 32.595528 104.72632 32.304488 104.1833 C 32.013448 103.64028 31.775321 102.96143 31.775321 102.67435 C 31.775321 101.85974 30.720857 100.03826 29.896883 99.429073 C 29.486499 99.125663 28.731177 98.078878 28.218433 97.103117 C 26.982739 94.751585 26.795204 94.618058 25.023796 94.826253 L 23.573238 94.996785 L 23.573238 94.100716 C 23.573238 92.592463 23.154573 92.496407 20.361031 93.361226 C 18.998997 93.78288 17.380441 94.267016 16.764351 94.43713 C 16.148267 94.607244 15.518157 94.981383 15.364437 95.268604 C 15.163207 95.644614 14.913905 95.74758 14.473535 95.637056 C 13.971851 95.511139 13.594023 95.779445 12.371855 97.129989 C 10.695411 98.982514 10.334201 100.04433 10.964705 101.26359 C 11.186335 101.69218 11.405081 102.39115 11.450981 102.81698 C 11.534141 103.58834 11.528349 103.59158 9.8624471 103.72338 C 8.3241161 103.84508 8.1017461 103.94496 7.0843221 104.97034 C 6.2503269 105.81087 5.8200519 106.57223 5.3350749 108.06731 C 4.5992091 110.3358 4.7479171 111.09451 6.0786987 111.85829 C 6.7294651 112.23178 6.862331 112.50331 6.9871704 113.71296 C 7.1048098 114.85275 7.3179406 115.33408 8.0770264 116.1743 C 8.6973519 116.86092 9.0211548 117.4793 9.0211548 117.97885 C 9.0211548 119.76671 9.3661911 120.47945 10.981242 122.02563 C 11.867576 122.87418 12.797306 123.63413 13.047266 123.71493 C 13.29722 123.79573 14.478978 123.43829 15.673462 122.92066 C 16.867946 122.40302 18.092426 121.97962 18.394226 121.97963 C 19.20303 121.97964 20.427242 123.6844 20.945492 125.53187 C 21.193436 126.41576 21.602493 127.64682 21.853963 128.26762 C 22.297573 129.36277 22.292825 129.46645 21.699451 131.7408 C 21.110151 133.99954 21.104789 134.11074 21.553723 134.79591 C 21.809963 135.18699 22.549103 135.73382 23.196517 136.01134 C 24.646595 136.63292 24.899457 137.22439 24.822257 139.81679 C 24.768288 141.62872 24.819457 141.84318 25.472864 142.53135 C 25.863078 142.94226 26.324711 143.84826 26.498641 144.54415 C 26.812701 145.80067 27.523196 146.58588 28.34504 146.58588 C 29.046224 146.58588 30.107885 147.96743 30.276705 149.09943 C 30.369425 149.72118 30.750519 150.36982 31.312301 150.9727 L 32.332393 150.9727 C 31.491024 150.31703 30.991872 149.54625 30.840495 148.64829 C 30.627555 147.38515 29.305383 145.89161 28.270109 145.74459 C 27.807945 145.67899 27.571967 145.34111 27.219527 144.24081 C 26.969517 143.46028 26.476033 142.44287 26.122953 141.97996 C 25.565879 141.24955 25.485221 140.87465 25.511621 139.14241 C 25.548611 136.71262 25.123947 135.90718 23.558769 135.43824 C 21.822805 134.91814 21.685838 134.23861 22.622392 130.79047 C 23.055166 129.19727 23.052336 129.11893 22.525757 128.08676 C 22.227507 127.50214 21.816958 126.31077 21.613668 125.43937 C 21.233108 123.80808 20.682755 122.84064 19.513021 121.74916 C 18.691447 120.98255 18.125835 121.05046 15.325163 122.25249 L 13.295312 123.12375 L 11.885579 121.8613 C 10.186449 120.33927 9.8365065 119.76708 9.8242065 118.49148 C 9.8116266 117.18308 9.4631994 116.34515 8.5979248 115.54282 C 8.0216287 115.00843 7.8526313 114.57541 7.7535319 113.38068 C 7.653593 112.17549 7.52079 111.84086 7.0683024 111.65055 C 5.3662126 110.93467 5.2232378 110.16345 6.3034912 107.53297 C 7.2727652 105.1727 8.2410634 104.43075 10.586951 104.25255 C 12.323029 104.12066 12.328242 104.11779 12.303642 103.32651 C 12.290052 102.88994 12.063463 101.98808 11.800313 101.32198 C 11.196859 99.794455 11.366666 99.162664 12.80387 97.584741 C 13.872184 96.41183 13.955535 96.370268 14.259595 96.857137 C 14.711909 97.58141 14.893829 97.510614 15.555123 96.352258 C 16.063427 95.461899 16.344173 95.277834 17.804081 94.87948 C 18.721565 94.629142 20.101633 94.195076 20.871077 93.914681 C 22.679551 93.255655 22.778622 93.266697 22.783622 94.132239 C 22.789522 95.187875 23.156353 95.611149 24.010937 95.547139 C 26.472305 95.362763 26.252083 95.258799 27.326497 97.108801 C 27.875837 98.054681 28.744488 99.254305 29.256612 99.774272 C 29.768752 100.29424 30.187821 100.84505 30.187821 100.99849 C 30.187821 101.15192 30.366422 101.42556 30.584696 101.60672 C 30.802976 101.78787 30.981571 102.19154 30.981571 102.5033 C 30.981571 102.81506 31.219698 103.51418 31.510738 104.05721 C 31.801778 104.60023 32.039905 105.4472 32.039905 105.93927 C 32.039905 106.43136 32.2185 107.2617 32.43678 107.78412 C 33.013074 109.16338 32.934412 109.85932 31.985128 111.78439 C 31.213644 113.34887 31.165927 113.58509 31.457511 114.39147 C 31.691711 115.0391 31.706535 115.65647 31.512288 116.68073 C 30.988584 119.4422 31.101086 119.92803 32.688444 121.74812 C 33.934178 123.17651 34.155224 123.59662 34.309534 124.83166 C 34.530298 126.59871 35.203394 127.43268 36.948132 128.10071 L 38.257613 128.60197 L 38.723735 128.00304 C 40.100943 126.23298 40.823964 125.41922 41.019718 125.41922 C 41.139968 125.41922 41.805817 126.1928 42.499731 127.13798 C 43.829755 128.94957 46.38168 131.13695 46.836934 130.85558 C 47.242574 130.60488 47.138176 125.96309 46.705676 125.02234 C 45.806662 123.06683 45.453498 121.68362 45.287158 119.46609 C 45.157118 117.73257 44.91827 116.67077 44.409176 115.56246 C 43.626746 113.85907 43.7193 113.08355 44.894934 111.4981 C 45.444434 110.75706 45.691379 110.65584 47.338713 110.49351 C 48.346637 110.39421 49.389207 110.15329 49.655367 109.95866 C 50.099507 109.6339 50.031688 109.55351 48.830094 108.97939 C 47.644556 108.41295 47.503879 108.24967 47.339229 107.25392 C 47.239219 106.64909 46.911035 105.6719 46.610075 105.08196 C 46.273935 104.42308 46.062821 103.50151 46.062821 102.69296 C 46.062821 101.96903 45.942704 101.06023 45.795654 100.67344 C 45.56458 100.06568 45.645403 99.822442 46.390967 98.880786 C 46.865431 98.281526 47.590977 97.429617 48.003271 96.987362 C 48.891131 96.035011 49.237821 95.244089 49.237821 94.172546 C 49.237821 93.55535 49.039444 93.27018 48.31178 92.840845 C 47.507606 92.366372 47.385738 92.159874 47.385738 91.272465 C 47.385738 90.580781 47.209098 90.086132 46.839518 89.741809 C 46.539204 89.462028 46.05118 88.78061 45.75483 88.22769 C 45.45848 87.674772 44.888365 86.797994 44.488241 86.278971 C 43.328637 84.774801 42.887821 83.210336 42.887821 80.601799 C 42.887821 79.317805 42.689441 77.445196 42.447021 76.440812 C 42.011147 74.634909 42.012609 74.608015 42.579313 74.004785 C 43.320517 73.215831 43.303023 72.625761 42.510583 71.683997 C 42.157599 71.264497 41.681253 70.275712 41.451733 69.486198 C 41.066409 68.160719 39.640705 66.013759 38.548551 65.113855 C 37.837557 64.528021 37.396788 63.500135 36.690784 60.782853 C 36.332724 59.40478 35.751876 57.697561 35.399906 56.989286 C 35.047932 56.281017 34.257302 54.701046 33.642908 53.477873 C 32.474274 51.151305 32.38556 50.636364 32.70343 48.015157 C 32.87123 46.631448 32.815183 46.253746 32.291569 45.237032 C 31.794895 44.272638 31.655032 43.461036 31.514872 40.740149 C 31.420812 38.914241 31.255886 37.278482 31.148486 37.104712 C 31.037766 36.925562 31.296366 36.289392 31.745866 35.636068 C 32.86345 34.011719 33.00723 33.253727 32.327226 32.573722 C 32.023576 32.270073 31.775321 31.779581 31.775321 31.483866 C 31.775321 30.334893 31.040511 29.195645 29.848307 28.496969 C 28.610329 27.771462 27.541988 26.114119 27.541988 24.918376 C 27.541988 24.595927 27.316331 23.650908 27.040727 22.818762 C 26.765107 21.986617 26.403795 20.655513 26.237675 19.860286 C 25.920885 18.343716 24.645278 14.984517 23.268864 12.043193 C 22.63948 10.69821 22.424021 9.8125026 22.319051 8.1323201 L 22.183659 5.9598429 L 24.002669 5.9582926 C 25.003273 5.9572926 26.87432 5.719651 28.160038 5.4306763 L 30.497363 4.9056437 L 31.064254 5.6973267 C 31.376018 6.1328559 32.113649 7.0053773 32.702913 7.6362264 L 33.774166 8.7829264 L 35.454167 8.3478109 C 37.581055 7.7966767 41.990472 7.6892827 42.842346 8.1679769 C 44.05505 8.8494659 44.301555 8.4303098 44.105835 6.0182373 L 43.929102 3.8385254 L 47.310807 3.3713704 C 51.600873 2.7789813 52.587304 2.7808451 52.901164 3.3806722 C 53.284228 4.1127562 53.735738 6.533621 53.735738 7.8553345 C 53.735738 8.6363181 53.968058 9.4968763 54.393062 10.289811 C 55.549819 12.44797 56.404572 15.11848 56.684912 17.450098 C 56.834922 18.69771 57.252817 20.462209 57.613538 21.371305 C 57.974254 22.28039 58.362706 23.952089 58.477051 25.086324 C 58.690078 27.199452 58.955266 27.973345 59.67026 28.566732 C 60.033969 28.86859 60.021063 28.977433 59.549854 29.576489 C 59.078094 30.176225 59.039416 30.50389 59.185535 32.655888 C 59.296103 34.28431 59.252005 35.161536 58.979862 36.409147 L 59.963782 36.409147 C 60.300639 35.071402 60.354088 34.268847 60.219063 32.56287 C 60.039231 30.290773 60.045576 30.256445 60.722909 29.812651 C 61.596532 29.240176 61.592673 28.714461 60.711023 28.136784 C 59.793906 27.535867 59.293587 26.278558 59.285787 24.555607 C 59.281787 23.672482 59.034758 22.573405 58.61451 21.57026 C 58.234248 20.662555 57.832374 18.97628 57.676066 17.631999 C 57.384554 15.124932 56.483311 12.243196 55.404887 10.368876 C 54.942267 9.5648412 54.677319 8.5742503 54.520186 7.0610677 C 54.213972 4.1121365 53.865386 2.8685313 53.190552 2.3218221 L 53.190035 2.3218221 C 52.831405 2.0313127 52.659295 1.8861091 52.020081 1.8965251 z M 111.90841 19.585885 C 111.14174 19.585885 110.35657 20.403934 110.35657 21.20284 C 110.35657 22.068824 109.3972 22.784919 107.18157 23.572205 C 105.49998 24.169731 104.63224 24.659863 103.74199 25.515238 C 103.08714 26.144425 101.95606 26.977914 101.22845 27.367322 C 100.40903 27.805859 99.607505 28.517706 99.122115 29.237492 C 98.691121 29.876626 97.917213 30.637542 97.402323 30.928861 C 96.887439 31.220181 95.934928 32.002189 95.286174 32.666223 C 94.19108 33.787067 94.010431 33.873385 92.759713 33.873385 C 91.153681 33.873385 90.777405 34.181521 90.777405 35.496025 C 90.777405 35.899805 90.818275 36.176077 90.941219 36.410181 L 92.23468 36.410181 C 92.1973 36.380481 92.15566 36.339033 92.122026 36.318713 C 91.818882 36.135574 91.571155 35.76368 91.571155 35.49189 C 91.571155 35.084211 91.824337 34.976558 93.019128 34.877458 C 94.319442 34.769628 94.609991 34.623208 95.863399 33.445504 C 96.631203 32.724079 97.676424 31.876341 98.185738 31.561381 C 98.695066 31.246426 99.46897 30.449314 99.90553 29.79043 C 100.43139 28.996784 101.10118 28.404112 101.8899 28.034465 C 102.54474 27.727596 103.61637 26.967508 104.27115 26.345162 C 105.12538 25.533337 106.05418 25.001707 107.55829 24.46414 C 110.02221 23.583535 110.75514 23.007969 111.24179 21.570776 C 111.74017 20.098934 112.34095 20.171226 112.34095 21.703068 L 112.34095 22.893693 L 115.10925 22.969657 C 117.19075 23.026817 117.99266 23.150103 118.34316 23.467301 C 118.63328 23.729849 119.48784 23.937656 120.60608 24.017655 C 122.36144 24.143254 122.4292 24.124457 123.54853 23.189282 C 124.8582 22.095098 125.02566 22.064124 126.25689 22.689571 C 126.81659 22.97389 127.95877 23.182342 129.27428 23.240442 C 131.54315 23.340592 132.0524 23.625822 132.0524 24.796936 C 132.0524 25.581042 129.70366 28.052551 128.95854 28.052551 C 128.27921 28.052551 127.7436 28.667503 127.87437 29.29692 C 127.93897 29.607709 128.1757 29.751014 128.55753 29.709814 C 129.58471 29.599045 129.19729 30.393061 127.9002 31.057536 C 127.17832 31.427345 127.04376 31.653596 126.97416 32.61558 C 126.89496 33.709939 126.84781 33.763109 125.25747 34.534843 C 123.19404 35.536147 122.32824 36.351249 121.98842 37.613208 C 121.82579 38.217197 121.41046 38.830374 120.93319 39.170219 C 119.97575 39.851968 119.96744 40.06018 120.8164 42.147298 C 121.18517 43.053902 121.65841 44.926358 121.86801 46.308801 L 122.24939 48.822343 L 121.28459 49.638314 C 120.14816 50.599128 120.21052 51.335885 121.42825 51.335885 C 121.85156 51.335885 122.35597 51.526395 122.54911 51.759115 C 122.8457 52.116474 122.81182 52.332363 122.33155 53.148177 C 121.39513 54.73887 120.3962 56.89757 119.55859 59.141093 C 119.12395 60.305247 118.60892 61.686437 118.41396 62.210156 C 118.219 62.733861 117.86525 64.281554 117.62796 65.649223 C 117.22505 67.971435 117.06228 68.352961 115.16558 71.417863 C 113.78 73.656851 112.44339 75.405396 110.95912 76.920369 C 109.65993 78.246418 108.56189 79.6418 108.2337 80.383724 C 107.93141 81.067093 107.3411 82.163061 106.92216 82.819234 C 105.35534 85.273299 105.68287 86.657138 108.03785 87.533675 L 109.43053 88.05199 L 109.59538 90.397583 C 109.68598 91.687735 109.85182 93.838244 109.96435 95.176103 C 110.107 96.872065 110.07014 97.960688 109.84291 98.772266 C 109.63593 99.511489 109.59172 99.843291 109.75661 100.30034 L 110.96687 100.30034 C 110.91737 100.21214 110.87117 100.13412 110.83975 100.09622 C 110.65929 99.878819 110.67703 99.461612 110.89401 98.804305 C 111.10438 98.166822 111.1563 97.095346 111.04542 95.685116 C 110.95252 94.503683 110.80391 92.26199 110.71521 90.703507 C 110.53715 87.573887 110.4244 87.355701 108.69362 86.79987 C 108.14276 86.622965 107.49251 86.17402 107.24875 85.801998 C 106.82303 85.15228 106.83407 85.077704 107.52832 83.90754 C 107.92584 83.237525 108.55248 82.069023 108.921 81.311316 C 109.28952 80.553612 110.57223 78.884899 111.77147 77.603015 C 113.53909 75.713587 116.97115 70.857556 116.97115 70.245841 C 116.97115 70.165632 117.20829 69.777135 117.49825 69.382845 C 117.82414 68.9397 118.22131 67.575797 118.5385 65.810453 C 118.82072 64.23976 119.29195 62.453808 119.58547 61.841703 C 119.87899 61.229594 120.43883 59.835622 120.82983 58.744218 C 121.22083 57.652824 122.00127 55.896561 122.56358 54.841097 C 123.1259 53.785633 123.58574 52.604209 123.58574 52.215934 C 123.58574 51.419225 122.91453 50.542135 122.30468 50.542135 C 122.0133 50.542135 122.0991 50.333429 122.6106 49.799544 L 123.32271 49.056954 L 122.91808 46.351693 C 122.69564 44.864004 122.21923 42.980949 121.85923 42.166935 C 121.04881 40.334442 121.04703 40.122687 121.84218 39.601717 C 122.19294 39.371862 122.62434 38.73302 122.80077 38.182166 C 123.21797 36.879582 123.88654 36.169264 125.25385 35.57509 C 127.2391 34.712365 127.80425 34.189953 127.9865 33.050179 C 128.11417 32.251815 128.33605 31.904327 128.90531 31.609957 C 129.80519 31.144622 130.20032 30.476727 130.20032 29.420943 C 130.20032 28.847147 130.55302 28.258805 131.52014 27.220561 C 132.24612 26.441185 132.9074 25.60099 132.9893 25.353491 C 133.21824 24.661725 132.6316 22.83736 132.11545 22.635311 C 131.86236 22.536241 130.68439 22.412926 129.49752 22.361426 C 127.9841 22.295786 127.01952 22.104426 126.26723 21.720638 C 124.87091 21.008292 124.63032 21.027472 123.70201 21.926827 C 123.2742 22.341296 122.66582 22.816654 122.35015 22.983093 C 121.58266 23.387802 119.36669 23.086119 118.69095 22.484932 C 118.25901 22.100644 117.72426 22.020967 115.78053 22.051367 C 114.40848 22.072797 113.3759 21.979007 113.3445 21.829675 C 113.3145 21.687126 113.362 21.28418 113.44992 20.934123 C 113.64336 20.163416 112.98317 19.585885 111.90841 19.585885 z M 58.536995 38.324792 C 57.961254 41.086532 57.875029 43.89354 58.341142 45.637008 C 58.912162 47.772796 58.914315 53.453992 58.344759 55.6519 C 57.820466 57.675228 57.373661 58.565728 56.129907 60.067651 C 54.508826 62.025189 54.499789 62.064297 54.446289 67.423792 C 54.398699 72.194962 54.4223 72.438051 55.10413 74.27557 C 55.49294 75.323424 55.892431 76.871249 55.991931 77.715153 C 56.018441 77.939885 56.062791 78.173841 56.116471 78.411235 L 57.137598 78.411235 C 57.049588 78.064499 56.974028 77.712275 56.922107 77.346183 C 56.779487 76.340549 56.477163 75.073776 56.250313 74.530851 C 56.023469 73.987912 55.649843 72.565021 55.419873 71.369287 C 55.060853 69.502489 55.048659 68.835109 55.333573 66.646061 C 55.515903 65.243918 55.594323 63.825565 55.507723 63.494316 C 55.324913 62.795301 55.627933 62.134674 56.693697 60.90791 C 59.126035 58.108128 59.598233 56.387659 59.562773 50.455835 C 59.542293 47.029518 59.438423 45.759187 59.110604 44.939893 C 58.741682 44.017879 58.725704 43.541615 58.991231 41.380937 C 59.100753 40.489744 59.303352 39.337114 59.514197 38.324792 L 58.536995 38.324792 z M 92.478076 38.325826 C 92.832863 39.030061 94.019797 40.195013 94.879997 40.603206 C 95.393091 40.846681 95.807756 41.242448 95.812756 41.492558 C 95.817356 41.740388 96.100212 42.512476 96.441142 43.208215 L 97.060742 44.473254 L 96.215833 45.19259 C 95.173539 46.080204 93.00232 49.346527 92.74421 50.415011 C 92.6394 50.848895 92.247052 51.798905 91.871912 52.52651 C 91.210755 53.808823 91.191914 53.978598 91.267814 58.051754 C 91.310884 60.362911 91.456177 62.543393 91.590792 62.897453 C 91.725407 63.251512 91.835738 64.523373 91.835738 65.723637 C 91.835738 67.80619 91.884899 67.987426 92.910091 69.687219 C 93.500951 70.666873 94.148176 71.932396 94.348246 72.499451 C 94.729925 73.58124 96.799241 77.614961 97.337728 78.35284 L 98.335083 78.35284 C 98.247663 77.948589 98.148812 77.640678 98.059648 77.530151 C 97.559668 76.910372 95.359077 72.710896 95.148197 71.973901 C 95.044103 71.610102 94.466629 70.48499 93.864555 69.473796 C 92.853121 67.775087 92.753063 67.432991 92.548873 64.975879 C 92.427323 63.51323 92.271007 60.522966 92.201607 58.331323 L 92.075517 54.346554 L 92.881152 52.642782 C 93.324442 51.705748 93.687195 50.775649 93.687305 50.575724 C 93.687415 50.375794 94.1632 49.482813 94.744604 48.591349 C 96.002368 46.662831 95.997391 46.669029 97.222489 45.603935 C 98.301353 44.666001 98.434388 43.970584 97.66794 43.276945 C 97.373356 43.01036 97.074339 42.280509 96.973409 41.582475 C 96.769429 40.171696 96.455333 39.664465 95.914559 39.871985 C 95.477761 40.039597 94.378155 39.236895 93.649064 38.325826 L 92.478076 38.325826 z M 97.669491 80.268486 C 97.72974 81.040384 97.990673 82.307923 98.300977 83.291557 C 99.192439 86.117498 99.755569 89.150851 99.426489 89.354236 C 99.282149 89.443446 97.961945 89.513915 96.492301 89.510815 C 94.744423 89.507115 93.572778 89.630406 93.105428 89.867383 C 92.712468 90.066638 92.331229 90.229635 92.257935 90.229635 C 92.184605 90.229635 92.089091 89.435778 92.046061 88.465401 C 91.970121 86.752731 91.940912 86.686177 91.041988 86.192672 C 90.532671 85.91306 89.725387 85.310812 89.247782 84.854252 L 88.379102 84.024329 L 83.956116 83.97782 C 80.774342 83.94455 79.087038 84.04296 77.945113 84.328186 C 76.192308 84.766005 74.042207 84.641837 72.217297 83.997974 C 69.969483 83.204898 69.822852 83.392648 69.621073 87.319218 L 69.478446 90.097343 L 68.681596 90.017761 C 68.094459 89.959201 67.470932 90.228303 66.313782 91.038888 L 64.742818 92.139079 L 63.358407 91.43783 C 62.040833 90.770683 61.945622 90.650867 61.394185 88.962012 C 60.749396 86.98724 59.592697 84.673385 59.25013 84.673385 C 59.127737 84.673385 59.027405 84.178704 59.027405 83.574227 C 59.027405 82.810683 58.745634 81.971578 58.104464 80.825041 C 58.011674 80.659117 57.935335 80.493264 57.853316 80.327397 L 56.79705 80.327397 C 56.88513 80.512812 56.971015 80.698907 57.070935 80.880334 C 57.711572 82.04355 57.969071 82.846594 57.969071 83.683264 C 57.969071 84.483538 58.122489 84.995124 58.452763 85.294019 C 58.946488 85.740833 59.58776 87.061171 60.619039 89.756278 C 61.279094 91.481247 61.268216 91.470633 63.373393 92.585046 L 64.941256 93.41497 L 65.622351 92.791235 C 67.004775 91.525036 67.933096 91.05596 69.222131 90.973775 L 70.518176 90.89161 L 70.461849 88.113485 C 70.431079 86.585527 70.512759 85.168615 70.643233 84.965356 C 70.844978 84.651076 71.140099 84.660963 72.615206 85.031502 C 74.791966 85.578273 76.924074 85.586751 78.752299 85.055273 C 79.901714 84.721129 80.53616 84.694217 82.100415 84.912646 C 83.453208 85.10154 84.560557 85.095211 85.803031 84.891459 L 87.575533 84.600521 L 88.940308 85.827836 C 89.691012 86.502787 90.45814 87.055151 90.645113 87.055151 C 91.156537 87.055151 91.306571 87.69061 91.306571 89.862732 C 91.306571 92.180959 91.636027 92.505186 92.805188 91.336027 C 93.562742 90.578482 93.644595 90.560246 96.346057 90.553646 C 99.518927 90.545946 100.56699 90.257823 100.56699 89.392476 C 100.56699 88.334096 100.00111 85.636405 99.342773 83.555623 C 99.046336 82.618655 98.745741 81.264663 98.603284 80.268486 L 97.669491 80.268486 z M 141.719 83.879635 C 141.34884 83.879635 139.94533 84.400417 138.59981 85.03667 C 137.2543 85.672928 135.68717 86.343662 135.11733 86.527018 C 134.54749 86.710369 133.59499 87.305261 133.00067 87.849418 C 131.73238 89.010647 129.39877 90.533825 127.97979 91.126737 C 127.42841 91.35712 126.16854 92.354567 125.17996 93.34314 C 123.56323 94.959859 123.35001 95.297734 123.0576 96.706242 C 122.79666 97.963436 122.80023 98.554233 123.07569 99.702441 C 123.12949 99.926601 123.16389 100.11311 123.19713 100.30034 L 124.21412 100.30034 C 123.79061 97.86381 123.81804 97.077824 124.37742 95.92231 C 124.93266 94.775349 127.62001 92.081718 128.20923 92.081718 C 128.68386 92.081718 132.3866 89.704275 133.37532 88.764608 C 133.88464 88.280555 134.9562 87.633353 135.75657 87.326453 C 136.55693 87.019555 138.06742 86.357039 139.11347 85.853674 C 140.15952 85.350308 141.32964 84.937968 141.71331 84.937968 C 142.09699 84.937968 143.23513 85.471516 144.24288 86.123425 C 145.71121 87.073318 146.07532 87.441133 146.07532 87.975509 C 146.07532 88.694283 146.90515 89.700468 147.49797 89.700468 C 148.10969 89.700468 148.37947 90.287509 148.56923 92.031075 C 148.72173 93.432276 148.68748 93.686725 148.35632 93.618575 C 147.87052 93.518605 147.84363 93.805254 148.22971 94.975081 C 148.7617 96.587017 148.12544 102.33146 146.97708 106.28188 C 146.7467 107.07435 146.59289 108.28156 146.63549 108.96441 C 146.77028 111.12339 146.31136 111.91648 144.06304 113.41013 C 143.32013 113.90367 142.36763 114.63366 141.94637 115.03226 C 141.52511 115.43085 140.67451 116.08285 140.05605 116.48126 C 139.43758 116.87965 138.93157 117.29985 138.93157 117.41506 C 138.93157 117.53028 138.33262 118.09882 137.60039 118.67803 C 135.98745 119.95422 135.4733 121.2262 135.99222 122.66125 C 136.2859 123.4734 136.25216 123.72569 135.68267 124.96963 C 135.03845 126.37674 132.68165 128.97799 130.52692 130.66024 L 129.40554 131.53564 L 129.57245 133.33088 C 129.7763 135.52422 129.38518 136.94251 128.51619 137.16062 C 128.18526 137.24372 127.46371 137.74994 126.91267 138.2851 C 126.04022 139.13243 125.92921 139.37374 126.05587 140.15424 C 126.16557 140.83021 126.04407 141.28256 125.56133 141.99392 C 124.97697 142.85503 124.07869 145.38501 123.7232 147.17138 C 123.60806 147.75001 123.36308 147.9472 122.45868 148.18682 C 120.43995 148.72167 116.33492 150.37294 115.13354 151.13341 C 114.48659 151.54293 113.69191 151.87755 113.36776 151.87755 C 111.93514 151.87755 110.39081 154.19718 110.74621 155.8153 C 110.87038 156.38061 110.74321 156.82703 110.2496 157.55421 C 109.88445 158.09229 109.51323 158.76142 109.42433 159.04146 C 109.33543 159.32149 109.09631 159.55047 108.89309 159.55047 C 108.35118 159.55047 107.22592 161.32821 106.75782 162.92391 C 106.53374 163.68778 106.18174 164.48133 105.97596 164.68711 C 105.3215 165.34156 102.36701 166.13289 99.90553 166.31285 L 97.52428 166.487 L 96.652498 165.40076 L 95.781234 164.31503 L 96.434424 163.18952 C 96.793818 162.57054 97.165513 161.64008 97.260213 161.12143 C 97.504533 159.78371 97.001021 159.43496 95.105823 159.63057 C 93.509409 159.79533 92.364905 160.55825 92.364905 161.45733 C 92.364905 162.21058 91.747271 162.28265 90.681287 161.6537 C 90.14971 161.34005 89.529698 161.1542 89.30411 161.2408 C 89.078513 161.3274 88.548522 162.16079 88.125887 163.09289 C 87.703253 164.02499 86.906542 165.32888 86.355452 165.99038 C 85.804368 166.65189 85.174852 167.44284 84.956571 167.7479 C 84.646972 168.18059 83.849926 168.44302 81.33147 168.94214 C 77.752295 169.65147 76.177544 169.79133 75.12358 169.49353 C 74.588428 169.34233 74.289483 169.42383 73.881278 169.83201 C 73.026929 170.68637 72.46716 172.82133 72.266907 175.98874 C 72.249107 176.2703 70.66367 176.83178 70.461849 176.62798 C 70.18414 176.34755 70.348022 170.66294 70.716097 167.80009 L 71.032874 165.33358 L 70.189514 164.54551 C 69.725626 164.11196 69.346155 163.59348 69.346155 163.39313 C 69.346155 162.87769 68.063864 161.93172 67.36488 161.93172 C 66.820084 161.93172 66.787091 161.83702 66.90496 160.61035 C 67.043607 159.16746 66.711599 158.49213 65.863163 158.49213 C 65.126653 158.49213 63.773763 161.5978 63.595085 163.69854 L 63.456075 165.33306 L 61.440177 165.48809 C 60.331474 165.57359 58.258809 165.76116 56.834774 165.9046 C 52.909805 166.29988 52.767761 166.28417 52.532711 165.43745 C 52.421621 165.03727 52.200091 163.59661 52.040751 162.23609 L 51.751363 159.76234 L 50.794832 159.43575 C 48.39708 158.61587 46.591988 156.50086 46.591988 154.51202 C 46.591988 152.59728 45.906593 152.54022 42.498181 154.17043 C 40.137379 155.29959 39.142943 155.34605 37.786841 154.2495 L 37.786841 155.29233 C 38.205544 155.56037 38.6251 155.58172 39.641508 155.58172 C 41.006112 155.58172 41.675466 155.41074 43.26661 154.65568 C 44.339894 154.14636 45.348327 153.72963 45.507817 153.72963 C 45.667301 153.72963 45.798238 154.10858 45.798238 154.57196 C 45.798238 156.48192 47.530871 158.72074 49.900313 159.8719 C 51.100067 160.45479 51.342421 161.02046 51.352421 163.25463 C 51.354621 163.76395 51.570535 164.77599 51.832495 165.50359 L 52.308952 166.82651 L 53.617399 166.81617 C 55.59522 166.80007 63.451105 166.17709 63.913411 165.99969 C 64.205098 165.88776 64.318315 165.46204 64.317521 164.48298 C 64.316121 162.93962 65.551656 159.20986 66.011475 159.36908 C 66.295055 159.46728 66.307315 159.722 66.125163 161.66713 C 66.040953 162.5664 66.069034 162.597 67.089962 162.72547 C 67.970407 162.83626 68.231768 163.01968 68.698649 163.85408 C 69.005272 164.4021 69.455155 164.99741 69.698071 165.177 C 70.103754 165.47691 70.114548 165.97343 69.831396 171.26758 C 69.613084 175.3493 69.605235 177.11392 69.805042 177.31372 C 70.182183 177.69087 71.532873 177.37433 72.375944 176.71118 C 72.870887 176.32185 73.050321 175.93272 73.050321 175.24615 C 73.050321 173.99424 73.796291 171.16253 74.263684 170.64126 C 74.547913 170.32425 74.988507 170.25166 76.07856 170.34206 C 77.443042 170.45522 82.625714 169.66436 84.629976 169.03723 C 85.130118 168.88073 85.651145 168.46484 85.86556 168.05021 C 86.069401 167.65602 86.697134 166.77536 87.260824 166.09322 C 87.824507 165.41113 88.444286 164.4043 88.638 163.85563 C 88.83172 163.30702 89.171773 162.65066 89.39351 162.39732 C 89.77537 161.96107 89.843535 161.96567 90.691622 162.48982 C 91.893012 163.23232 92.852155 163.00064 93.069255 161.91518 C 93.156834 161.47733 93.477176 160.94485 93.781356 160.73179 C 94.44806 160.26477 96.598238 160.20516 96.598238 160.65376 C 96.598238 160.82406 96.225228 161.77265 95.769348 162.76164 L 94.940458 164.55998 L 95.738342 165.46949 C 96.177392 165.96954 96.58523 166.5233 96.64423 166.70042 C 96.82085 167.2303 101.95469 167.03955 103.93319 166.42963 C 106.2857 165.70443 106.81994 165.27453 107.33195 163.69647 C 107.93548 161.83634 108.7673 160.38048 109.32769 160.20262 C 109.58318 160.12152 110.22431 159.26894 110.75241 158.30817 C 111.53181 156.89017 111.68319 156.38207 111.55753 155.60859 C 111.3289 154.2013 112.12546 153.04666 113.58531 152.66872 C 114.21042 152.5069 115.04245 152.14496 115.4343 151.86463 C 116.31587 151.23394 119.71818 149.85896 121.94036 149.23534 C 123.82146 148.70742 124.64407 148.099 124.64407 147.23442 C 124.64407 146.21897 125.66684 143.27256 126.38867 142.20889 C 126.9017 141.45291 127.04279 140.97634 126.94057 140.34647 C 126.83076 139.6698 126.94457 139.36529 127.50953 138.82667 C 127.89797 138.45615 128.53973 138.03061 128.9358 137.88099 C 130.03385 137.46621 130.53555 136.01784 130.39411 133.67091 L 130.27732 131.73666 L 131.77128 130.72225 C 133.52736 129.52971 135.57735 127.14954 136.45265 125.28693 C 137.14418 123.81536 137.21266 123.25274 136.79682 122.47573 C 136.26288 121.47806 136.76023 120.58168 138.87214 118.73229 C 142.46542 115.58575 143.64207 114.62604 144.98392 113.74758 C 146.76107 112.58412 147.39824 111.38955 147.39824 109.21969 C 147.39824 108.28037 147.57904 106.9275 147.80028 106.21316 C 148.71372 103.26383 149.31859 99.044391 149.43894 94.782328 C 149.57403 89.997839 149.41724 89.386884 147.92275 88.865894 C 147.33643 88.661503 147.1454 88.411941 147.0825 87.770353 C 147.0199 87.13161 146.69593 86.705826 145.67845 85.924988 C 143.9551 84.602448 142.55598 83.879635 141.719 83.879635 z M 110.92295 116.62544 C 111.21855 118.73176 111.31661 121.0589 111.00253 121.71505 C 110.82838 122.07885 110.60239 123.51529 110.50023 124.9071 L 110.31471 127.4377 L 111.56167 128.45986 L 112.80913 129.48202 L 114.95629 129.03708 C 116.13725 128.79234 117.50583 128.59238 117.99797 128.59318 C 118.67125 128.5941 119.1 128.37505 119.72964 127.70745 C 120.6874 126.69193 121.01388 125.52637 121.48199 121.45047 C 121.65747 119.9225 121.48699 119.30153 121.74967 118.13026 C 121.83337 117.75726 121.89245 117.45126 121.94501 117.15461 L 121.00553 117.15461 C 120.98713 117.26798 120.97199 117.40314 120.94869 117.48172 C 120.79751 117.99105 120.96479 118.70023 120.67377 120.99778 C 120.14676 125.15817 119.76931 126.60488 119.0625 127.17363 C 118.85806 127.33813 117.40339 127.6813 115.82962 127.93638 L 112.9683 128.40043 L 112.08515 127.54467 C 111.29507 126.77889 111.22783 126.60163 111.44126 125.85743 C 111.57243 125.40007 111.67949 124.45565 111.67949 123.75834 C 111.67949 123.06104 111.84541 122.22649 112.04846 121.90419 C 112.34257 121.43735 112.37772 120.64558 112.22106 118.01088 C 112.16976 117.14879 112.08763 117.34808 111.99626 116.62544 L 110.92295 116.62544 z " /><path
       style="display:inline;fill:none;stroke:#000000;stroke-width:1;stroke-linecap:butt;stroke-linejoin:miter;stroke-dasharray:none;stroke-opacity:1"
       d="m 48.868923,44.38124 v -7 h 7"
       id="path5401"
       sodipodi:nodetypes="ccc" /><path
       style="display:inline;fill:none;stroke:#000000;stroke-width:1;stroke-linecap:butt;stroke-linejoin:miter;stroke-dasharray:none;stroke-opacity:1"
       d="m 100.88492,37.324426 h 7 v 6.999998"
       id="path5401-9"
       sodipodi:nodetypes="ccc" /><path
       style="display:inline;fill:none;stroke:#000000;stroke-width:1;stroke-linecap:butt;stroke-linejoin:miter;stroke-dasharray:none;stroke-opacity:1"
       d="m 107.93014,72.285643 v 7 h -6.99999"
       id="path5401-9-2"
       sodipodi:nodetypes="ccc" /><path
       style="display:inline;fill:none;stroke:#000000;stroke-width:1;stroke-linecap:butt;stroke-linejoin:miter;stroke-dasharray:none;stroke-opacity:1"
       d="m 55.929774,79.295482 h -7 v -6.999998"
       id="path5401-9-28"
       sodipodi:nodetypes="ccc" /></g></svg>
